# ProBuilder 5.1.1
# https://unity3d.com/unity/features/worldbuilding/probuilder
# 2024. 04. 30. 22:28:20

mtllib ./Arch.mtl
o Arch

g Arch
v -1.378544 0.265077 -3.277661
v -1.018544 0.265077 -3.277661
v -1.378544 0.265077 -5.277661
v -1.018544 0.265077 -5.277661
v -1.373413 0.3714402 -5.277661
v -1.373413 0.3714402 -3.277661
v -1.01526 0.3349728 -5.277661
v -1.01526 0.3349728 -3.277661
v -1.358074 0.476712 -5.277661
v -1.358074 0.476712 -3.277661
v -1.005443 0.4041514 -5.277661
v -1.005443 0.4041514 -3.277661
v -1.332683 0.5798122 -5.277661
v -1.332683 0.5798122 -3.277661
v -0.9891928 0.471903 -5.277661
v -0.9891928 0.471903 -3.277661
v -1.297502 0.6796827 -5.277661
v -1.297502 0.6796827 -3.277661
v -0.9666767 0.5375322 -5.277661
v -0.9666767 0.5375322 -3.277661
v -1.25289 0.7752988 -5.277661
v -1.25289 0.7752988 -3.277661
v -0.9381256 0.6003656 -5.277661
v -0.9381256 0.6003656 -3.277661
v -1.199307 0.8656794 -5.277661
v -1.199307 0.8656794 -3.277661
v -0.9038323 0.6597586 -5.277661
v -0.9038323 0.6597586 -3.277661
v -1.137302 0.9498969 -5.277661
v -1.137302 0.9498969 -3.277661
v -0.8641489 0.7151015 -5.277661
v -0.8641489 0.7151015 -3.277661
v -1.067511 1.027087 -5.277661
v -1.067511 1.027087 -3.277661
v -0.8194826 0.7658266 -5.277661
v -0.8194826 0.7658266 -3.277661
v -0.9906497 1.096458 -5.277661
v -0.9906497 1.096458 -3.277661
v -0.7702916 0.8114133 -5.277661
v -0.7702916 0.8114133 -3.277661
v -0.9075077 1.157299 -5.277661
v -0.9075077 1.157299 -3.277661
v -0.7170807 0.8513939 -5.277661
v -0.7170807 0.8513939 -3.277661
v -0.8189378 1.208983 -5.277661
v -0.8189378 1.208983 -3.277661
v -0.660396 0.8853582 -5.277661
v -0.660396 0.8853582 -3.277661
v -0.7258489 1.250982 -5.277661
v -0.7258489 1.250982 -3.277661
v -0.6008191 0.9129573 -5.277661
v -0.6008191 0.9129573 -3.277661
v -0.6291963 1.282864 -5.277661
v -0.6291963 1.282864 -3.277661
v -0.5389614 0.9339085 -5.277661
v -0.5389614 0.9339085 -3.277661
v -0.5299715 1.304302 -5.277661
v -0.5299715 1.304302 -3.277661
v -0.4754575 0.9479965 -5.277661
v -0.4754575 0.9479965 -3.277661
v -0.429193 1.315077 -5.277661
v -0.429193 1.315077 -3.277661
v -0.4109592 0.9550768 -5.277661
v -0.4109592 0.9550768 -3.277661
v -0.3278945 1.315077 -5.277661
v -0.3278945 1.315077 -3.277661
v -0.3461282 0.9550768 -5.277661
v -0.3461282 0.9550768 -3.277661
v -0.227116 1.304302 -5.277661
v -0.227116 1.304302 -3.277661
v -0.28163 0.9479965 -5.277661
v -0.28163 0.9479965 -3.277661
v -0.1278912 1.282864 -5.277661
v -0.1278912 1.282864 -3.277661
v -0.2181261 0.9339085 -5.277661
v -0.2181261 0.9339085 -3.277661
v -0.03123856 1.250982 -5.277661
v -0.03123856 1.250982 -3.277661
v -0.1562685 0.9129574 -5.277661
v -0.1562685 0.9129574 -3.277661
v 0.06185043 1.208983 -5.277661
v 0.06185043 1.208983 -3.277661
v -0.09669149 0.8853581 -5.277661
v -0.09669149 0.8853581 -3.277661
v 0.1504203 1.157299 -5.277661
v 0.1504203 1.157299 -3.277661
v -0.04000676 0.8513939 -5.277661
v -0.04000676 0.8513939 -3.277661
v 0.2335624 1.096458 -5.277661
v 0.2335624 1.096458 -3.277661
v 0.01320416 0.8114133 -5.277661
v 0.01320416 0.8114133 -3.277661
v 0.3104231 1.027087 -5.277661
v 0.3104231 1.027087 -3.277661
v 0.06239498 0.7658267 -5.277661
v 0.06239498 0.7658267 -3.277661
v 0.3802145 0.9498969 -5.277661
v 0.3802145 0.9498969 -3.277661
v 0.1070615 0.7151015 -5.277661
v 0.1070615 0.7151015 -3.277661
v 0.4422197 0.8656794 -5.277661
v 0.4422197 0.8656794 -3.277661
v 0.1467448 0.6597586 -5.277661
v 0.1467448 0.6597586 -3.277661
v 0.4958029 0.7752989 -5.277661
v 0.4958029 0.7752989 -3.277661
v 0.1810381 0.6003656 -5.277661
v 0.1810381 0.6003656 -3.277661
v 0.5404141 0.6796827 -5.277661
v 0.5404141 0.6796827 -3.277661
v 0.2095892 0.5375322 -5.277661
v 0.2095892 0.5375322 -3.277661
v 0.5755955 0.5798122 -5.277661
v 0.5755955 0.5798122 -3.277661
v 0.2321054 0.4719029 -5.277661
v 0.2321054 0.4719029 -3.277661
v 0.6009862 0.476712 -5.277661
v 0.6009862 0.476712 -3.277661
v 0.2483554 0.4041514 -5.277661
v 0.2483554 0.4041514 -3.277661
v 0.6163256 0.3714404 -5.277661
v 0.6163256 0.3714404 -3.277661
v 0.2581726 0.3349729 -5.277661
v 0.2581726 0.3349729 -3.277661
v 0.6214563 0.2650769 -5.277661
v 0.6214563 0.2650769 -3.277661
v 0.2614563 0.2650769 -5.277661
v 0.2614563 0.2650769 -3.277661

vt -1.977825 1.939344
vt -1.617825 1.939344
vt -1.977825 -0.06065607
vt -1.617825 -0.06065607
vt -0.06065607 0.2693593
vt -0.06065607 0.3758462
vt 1.939344 0.2693593
vt 1.939344 0.3758462
vt 0.06065607 0.3587279
vt 0.06065607 0.288755
vt -1.939344 0.3587279
vt -1.939344 0.288755
vt -0.06065607 0.1820719
vt -0.06065607 0.2884554
vt 1.939344 0.1820719
vt 1.939344 0.2884554
vt 0.06065607 0.2736805
vt 0.06065607 0.2038088
vt -1.939344 0.2736805
vt -1.939344 0.2038088
vt -0.06065607 0.09192268
vt -0.06065607 0.1981034
vt 1.939344 0.09192268
vt 1.939344 0.1981034
vt 0.06065607 0.1856467
vt 0.06065607 0.1159737
vt -1.939344 0.1856467
vt -1.939344 0.1159737
vt -0.06065607 -0.0007175667
vt -0.06065607 0.1051685
vt 1.939344 -0.0007175667
vt 1.939344 0.1051685
vt 0.06065607 0.09485446
vt 0.06065607 0.02547027
vt -1.939344 0.09485446
vt -1.939344 0.02547027
vt -0.06065607 -0.09541698
vt -0.06065607 0.01009416
vt 1.939344 -0.09541698
vt 1.939344 0.01009416
vt 0.06065607 0.001618768
vt 0.06065607 -0.06739721
vt -1.939344 0.001618768
vt -1.939344 -0.06739721
vt -0.06065607 -0.1916345
vt -0.06065607 -0.08656404
vt 1.939344 -0.1916345
vt 1.939344 -0.08656404
vt 0.06065607 -0.09364451
vt 0.06065607 -0.162227
vt -1.939344 -0.09364451
vt -1.939344 -0.162227
vt -0.06065607 -0.2887216
vt -0.06065607 -0.1841403
vt 1.939344 -0.2887216
vt 1.939344 -0.1841403
vt 0.06065607 -0.1903642
vt 0.06065607 -0.2584643
vt -1.939344 -0.1903642
vt -1.939344 -0.2584643
vt -0.06065607 -0.3858829
vt -0.06065607 -0.2818195
vt 1.939344 -0.3858829
vt 1.939344 -0.2818195
vt 0.06065607 -0.2877997
vt 0.06065607 -0.3553876
vt -1.939344 -0.2877997
vt -1.939344 -0.3553876
vt 0.482184 -0.06065607
vt 0.3786469 -0.06065607
vt 0.482184 1.939344
vt 0.3786469 1.939344
vt -0.385026 -0.06065607
vt -0.4520924 -0.06065607
vt -0.385026 1.939344
vt -0.4520924 1.939344
vt 0.5765346 -0.06065607
vt 0.4735097 -0.06065607
vt 0.5765346 1.939344
vt 0.4735097 1.939344
vt -0.4809021 -0.06065607
vt -0.5474591 -0.06065607
vt -0.4809021 1.939344
vt -0.5474591 1.939344
vt 0.6677228 -0.06065607
vt 0.5651756 -0.06065607
vt 0.6677228 1.939344
vt 0.5651756 1.939344
vt -0.5741045 -0.06065607
vt -0.6401858 -0.06065607
vt -0.5741045 1.939344
vt -0.6401858 1.939344
vt 0.754417 -0.06065607
vt 0.6522924 -0.06065607
vt 0.754417 1.939344
vt 0.6522924 1.939344
vt -0.6631439 -0.06065607
vt -0.728803 -0.06065607
vt -0.6631439 1.939344
vt -0.728803 1.939344
vt 0.8352249 -0.06065607
vt 0.7334497 -0.06065607
vt 0.8352249 1.939344
vt 0.7334497 1.939344
vt -0.7464076 -0.06065607
vt -0.811717 -0.06065607
vt -0.7464076 1.939344
vt -0.811717 1.939344
vt 0.9087293 -0.06065607
vt 0.8072149 -0.06065607
vt 0.9087293 1.939344
vt 0.8072149 1.939344
vt -0.8222545 -0.06065607
vt -0.8873023 -0.06065607
vt -0.8222545 1.939344
vt -0.8873023 1.939344
vt 0.9735681 -0.06065607
vt 0.8722153 -0.06065607
vt 0.9735681 1.939344
vt 0.8722153 1.939344
vt -0.8890779 -0.06065607
vt -0.9539636 -0.06065607
vt -0.8890779 1.939344
vt -0.9539636 1.939344
vt 1.028474 -0.06065607
vt 0.9271753 -0.06065607
vt 1.028474 1.939344
vt 0.9271753 1.939344
vt -0.9454091 -0.06065607
vt -1.01024 -0.06065607
vt -0.9454091 1.939344
vt -1.01024 1.939344
vt 1.072352 -0.06065607
vt 0.9709992 -0.06065607
vt 1.072352 1.939344
vt 0.9709992 1.939344
vt -0.9900078 -0.06065607
vt -1.054893 -0.06065607
vt -0.9900078 1.939344
vt -1.054893 1.939344
vt 1.104327 -0.06065607
vt 1.002812 -0.06065607
vt 1.104327 1.939344
vt 1.002812 1.939344
vt -1.021929 -0.06065607
vt -1.086977 -0.06065607
vt -1.021929 1.939344
vt -1.086977 1.939344
vt 1.123767 -0.06065607
vt 1.021992 -0.06065607
vt 1.123767 1.939344
vt 1.021992 1.939344
vt -1.04057 -0.06065607
vt -1.10588 -0.06065607
vt -1.04057 1.939344
vt -1.10588 1.939344
vt 1.130326 -0.06065607
vt 1.130326 1.939344
vt -1.045689 -0.06065607
vt -1.111348 -0.06065607
vt -1.045689 1.939344
vt -1.111348 1.939344
vt 1.021368 -0.06065607
vt 1.021368 1.939344
vt -1.037378 -0.06065607
vt -1.103459 -0.06065607
vt -1.037378 1.939344
vt -1.103459 1.939344
vt 1.104718 -0.06065607
vt 1.001693 -0.06065607
vt 1.104718 1.939344
vt 1.001693 1.939344
vt -1.016037 -0.06065607
vt -1.082595 -0.06065607
vt -1.016037 1.939344
vt -1.082595 1.939344
vt 1.073133 -0.06065607
vt 0.9695955 -0.06065607
vt 1.073133 1.939344
vt 0.9695955 1.939344
vt -0.9823123 -0.06065607
vt -1.049378 -0.06065607
vt -0.9823123 1.939344
vt -1.049378 1.939344
vt 0.06065607 1.029758
vt 0.06065607 0.9256947
vt -1.939344 1.029758
vt -1.939344 0.9256947
vt -0.06065607 0.9370282
vt -0.06065607 1.004616
vt 1.939344 0.9370282
vt 1.939344 1.004616
vt 0.06065607 0.9753464
vt 0.06065607 0.8707653
vt -1.939344 0.9753464
vt -1.939344 0.8707653
vt -0.06065607 0.8811368
vt -0.06065607 0.9492368
vt 1.939344 0.8811368
vt 1.939344 0.9492368
vt 0.06065607 0.9107647
vt 0.06065607 0.8056942
vt -1.939344 0.9107647
vt -1.939344 0.8056942
vt -0.06065607 0.8156561
vt -0.06065607 0.8842385
vt 1.939344 0.8156561
vt 1.939344 0.8842385
vt 0.06065607 0.8369633
vt 0.06065607 0.7314521
vt -1.939344 0.8369633
vt -1.939344 0.7314521
vt -0.06065607 0.7416319
vt -0.06065607 0.810648
vt 1.939344 0.7416319
vt 1.939344 0.810648
vt 0.06065607 0.7549469
vt 0.06065607 0.6490608
vt -1.939344 0.7549469
vt -1.939344 0.6490608
vt -0.06065607 0.6601055
vt -0.06065607 0.7294897
vt 1.939344 0.6601055
vt 1.939344 0.7294897
vt 0.06065607 0.6657533
vt 0.06065607 0.5595726
vt -1.939344 0.6657533
vt -1.939344 0.5595726
vt -0.06065607 0.5720947
vt -0.06065607 0.6417677
vt 1.939344 0.5720947
vt 1.939344 0.6417677
vt 0.06065607 0.5704395
vt 0.06065607 0.4640562
vt -1.939344 0.5704395
vt -1.939344 0.4640562
vt -0.06065607 0.4785846
vt -0.06065607 0.5484561
vt 1.939344 0.4785846
vt 1.939344 0.5484561
vt 0.06065607 0.4700716
vt 0.06065607 0.3635843
vt -1.939344 0.4700716
vt -1.939344 0.3635843
vt -0.06065607 0.380528
vt -0.06065607 0.4505011
vt 1.939344 0.380528
vt 1.939344 0.4505011
vt -0.3378246 1.939344
vt 0.02217537 1.939344
vt -0.3378246 -0.06065607
vt 0.02217537 -0.06065607
vt -1.977825 0.3650769
vt -1.972694 0.4714401
vt -1.617825 0.3650769
vt -1.614541 0.4349727
vt 1.972694 0.4714401
vt 1.977825 0.3650769
vt 1.614541 0.4349727
vt 1.617825 0.3650769
vt -1.957355 0.5767119
vt -1.604724 0.5041513
vt 1.957355 0.5767119
vt 1.604724 0.5041513
vt -1.931964 0.6798121
vt -1.588474 0.5719029
vt 1.931964 0.6798121
vt 1.588474 0.5719029
vt -1.896782 0.7796826
vt -1.565958 0.6375321
vt 1.896782 0.7796826
vt 1.565958 0.6375321
vt -1.852171 0.8752987
vt -1.537406 0.7003655
vt 1.852171 0.8752987
vt 1.537406 0.7003655
vt -1.798588 0.9656793
vt -1.503113 0.7597585
vt 1.798588 0.9656793
vt 1.503113 0.7597585
vt -1.736583 1.049897
vt -1.46343 0.8151014
vt 1.736583 1.049897
vt 1.46343 0.8151014
vt -1.666791 1.127087
vt -1.418763 0.8658265
vt 1.666791 1.127087
vt 1.418763 0.8658265
vt -1.589931 1.196458
vt -1.369572 0.9114133
vt 1.589931 1.196458
vt 1.369572 0.9114133
vt -1.506788 1.257298
vt -1.316362 0.9513938
vt 1.506788 1.257298
vt 1.316362 0.9513938
vt -1.418219 1.308983
vt -1.259677 0.9853581
vt 1.418219 1.308983
vt 1.259677 0.9853581
vt -1.32513 1.350982
vt -1.2001 1.012957
vt 1.32513 1.350982
vt 1.2001 1.012957
vt -1.228477 1.382864
vt -1.138242 1.033908
vt 1.228477 1.382864
vt 1.138242 1.033908
vt -1.129252 1.404302
vt -1.074738 1.047996
vt 1.129252 1.404302
vt 1.074738 1.047996
vt -1.028474 1.415077
vt -1.01024 1.055077
vt 1.028474 1.415077
vt 1.01024 1.055077
vt -0.9271753 1.415077
vt -0.9454091 1.055077
vt 0.9271753 1.415077
vt 0.9454091 1.055077
vt -0.8263968 1.404302
vt -0.8809108 1.047996
vt 0.8263968 1.404302
vt 0.8809108 1.047996
vt -0.727172 1.382864
vt -0.817407 1.033908
vt 0.727172 1.382864
vt 0.817407 1.033908
vt -0.6305194 1.350982
vt -0.7555493 1.012957
vt 0.6305194 1.350982
vt 0.7555493 1.012957
vt -0.5374304 1.308983
vt -0.6959723 0.985358
vt 0.5374304 1.308983
vt 0.6959723 0.985358
vt -0.4488605 1.257298
vt -0.6392876 0.9513938
vt 0.4488605 1.257298
vt 0.6392876 0.9513938
vt -0.3657185 1.196458
vt -0.5860767 0.9114132
vt 0.3657185 1.196458
vt 0.5860767 0.9114132
vt -0.2888578 1.127087
vt -0.5368859 0.8658266
vt 0.2888578 1.127087
vt 0.5368859 0.8658266
vt -0.2190664 1.049897
vt -0.4922193 0.8151014
vt 0.2190664 1.049897
vt 0.4922193 0.8151014
vt -0.1570612 0.9656793
vt -0.452536 0.7597585
vt 0.1570612 0.9656793
vt 0.452536 0.7597585
vt -0.103478 0.8752988
vt -0.4182428 0.7003655
vt 0.103478 0.8752988
vt 0.4182428 0.7003655
vt -0.05886674 0.7796826
vt -0.3896916 0.6375321
vt 0.05886674 0.7796826
vt 0.3896916 0.6375321
vt -0.02368534 0.6798121
vt -0.3671755 0.5719028
vt 0.02368534 0.6798121
vt 0.3671755 0.5719028
vt 0.001705408 0.5767119
vt -0.3509254 0.5041513
vt -0.001705408 0.5767119
vt 0.3509254 0.5041513
vt 0.01704472 0.4714403
vt -0.3411083 0.4349728
vt -0.01704472 0.4714403
vt 0.3411083 0.4349728
vt 0.02217543 0.3650768
vt -0.3378246 0.3650768
vt -0.02217543 0.3650768
vt 0.3378246 0.3650768

vn 0 -1 0
vn -0.9988386 0.04818103 0
vn -0.9953526 0.09629731 0
vn 0.9955893 -0.09381904 0
vn 0.9988983 -0.04692703 0
vn -0.9814178 0.1918832 0
vn 0.9823453 -0.1870766 0
vn -0.9582205 0.2860304 0
vn 0.9602363 -0.2791887 0
vn -0.9258113 0.3779861 0
vn 0.9292201 -0.3695267 0
vn -0.8842788 0.4669594 0
vn 0.8892618 -0.4573984 0
vn -0.8337679 0.5521151 0
vn 0.8403574 -0.5420328 0
vn -0.7745001 0.6325738 0
vn 0.7825648 -0.6225692 0
vn -0.7067969 0.7074165 0
vn 0.7160366 -0.6980628 0
vn -0.6311032 0.7756988 0
vn 0.6410609 -0.76749 0
vn -0.5480068 0.8364739 0
vn 0.5580992 -0.8297743 0
vn -0.4582539 0.8888213 0
vn 0.4678154 -0.8838262 0
vn -0.362757 0.9318838 0
vn 0.3711026 -0.9285918 0
vn -0.2625901 0.9649075 0
vn 0.2690831 -0.963117 0
vn -0.15897 0.9872834 0
vn 0.1630918 -0.9866109 0
vn -0.05322829 0.9985824 0
vn 0.0546415 -0.9985061 0
vn 0.05322826 0.9985824 0
vn -0.05464154 -0.9985061 0
vn 0.15897 0.9872834 0
vn -0.1630918 -0.9866109 0
vn 0.2625901 0.9649075 0
vn -0.2690824 -0.9631172 0
vn 0.3627573 0.9318836 0
vn -0.3711027 -0.9285918 0
vn 0.4582537 0.8888214 0
vn -0.4678161 -0.8838258 0
vn 0.5480064 0.8364742 0
vn -0.5580989 -0.8297744 0
vn 0.6311037 0.7756985 0
vn -0.6410609 -0.76749 0
vn 0.7067971 0.7074163 0
vn -0.7160362 -0.6980631 0
vn 0.7745001 0.6325738 0
vn -0.7825646 -0.6225694 0
vn 0.8337678 0.5521153 0
vn -0.8403577 -0.5420322 0
vn 0.8842787 0.4669596 0
vn -0.8892618 -0.4573985 0
vn 0.9258114 0.377986 0
vn -0.9292201 -0.3695268 0
vn 0.9582205 0.2860304 0
vn -0.9602362 -0.279189 0
vn 0.9814178 0.191883 0
vn -0.9823454 -0.1870763 0
vn 0.9953526 0.09629736 0
vn -0.9900804 -0.1405024 0
vn 0.9988386 0.04818145 0
vn -0.9988983 -0.04692776 0
vn 0 0 1
vn 0 0 -1

usemtl ProBuilderDefault
f 3/3/1 4/4/1 2/2/1 1/1/1
f 1/7/2 6/8/3 5/6/3 3/5/2
f 8/11/4 2/12/5 4/10/5 7/9/4
f 6/15/3 10/16/6 9/14/6 5/13/3
f 12/19/7 8/20/4 7/18/4 11/17/7
f 10/23/6 14/24/8 13/22/8 9/21/6
f 16/27/9 12/28/7 11/26/7 15/25/9
f 14/31/8 18/32/10 17/30/10 13/29/8
f 20/35/11 16/36/9 15/34/9 19/33/11
f 18/39/10 22/40/12 21/38/12 17/37/10
f 24/43/13 20/44/11 19/42/11 23/41/13
f 22/47/12 26/48/14 25/46/14 21/45/12
f 28/51/15 24/52/13 23/50/13 27/49/15
f 26/55/14 30/56/16 29/54/16 25/53/14
f 32/59/17 28/60/15 27/58/15 31/57/17
f 30/63/16 34/64/18 33/62/18 29/61/16
f 36/67/19 32/68/17 31/66/17 35/65/19
f 34/71/18 38/72/20 37/70/20 33/69/18
f 40/75/21 36/76/19 35/74/19 39/73/21
f 38/79/20 42/80/22 41/78/22 37/77/20
f 44/83/23 40/84/21 39/82/21 43/81/23
f 42/87/22 46/88/24 45/86/24 41/85/22
f 48/91/25 44/92/23 43/90/23 47/89/25
f 46/95/24 50/96/26 49/94/26 45/93/24
f 52/99/27 48/100/25 47/98/25 51/97/27
f 50/103/26 54/104/28 53/102/28 49/101/26
f 56/107/29 52/108/27 51/106/27 55/105/29
f 54/111/28 58/112/30 57/110/30 53/109/28
f 60/115/31 56/116/29 55/114/29 59/113/31
f 58/119/30 62/120/32 61/118/32 57/117/30
f 64/123/33 60/124/31 59/122/31 63/121/33
f 62/127/32 66/128/34 65/126/34 61/125/32
f 68/131/35 64/132/33 63/130/33 67/129/35
f 66/135/34 70/136/36 69/134/36 65/133/34
f 72/139/37 68/140/35 67/138/35 71/137/37
f 70/143/36 74/144/38 73/142/38 69/141/36
f 76/147/39 72/148/37 71/146/37 75/145/39
f 74/151/38 78/152/40 77/150/40 73/149/38
f 80/155/41 76/156/39 75/154/39 79/153/41
f 78/158/40 82/127/42 81/125/42 77/157/40
f 84/161/43 80/162/41 79/160/41 83/159/43
f 82/151/42 86/164/44 85/163/44 81/149/42
f 88/167/45 84/168/43 83/166/43 87/165/45
f 86/171/44 90/172/46 89/170/46 85/169/44
f 92/175/47 88/176/45 87/174/45 91/173/47
f 90/179/46 94/180/48 93/178/48 89/177/46
f 96/183/49 92/184/47 91/182/47 95/181/49
f 94/187/48 98/188/50 97/186/50 93/185/48
f 100/191/51 96/192/49 95/190/49 99/189/51
f 98/195/50 102/196/52 101/194/52 97/193/50
f 104/199/53 100/200/51 99/198/51 103/197/53
f 102/203/52 106/204/54 105/202/54 101/201/52
f 108/207/55 104/208/53 103/206/53 107/205/55
f 106/211/54 110/212/56 109/210/56 105/209/54
f 112/215/57 108/216/55 107/214/55 111/213/57
f 110/219/56 114/220/58 113/218/58 109/217/56
f 116/223/59 112/224/57 111/222/57 115/221/59
f 114/227/58 118/228/60 117/226/60 113/225/58
f 120/231/61 116/232/59 115/230/59 119/229/61
f 118/235/60 122/236/62 121/234/62 117/233/60
f 124/239/63 120/240/61 119/238/61 123/237/63
f 122/243/62 126/244/64 125/242/64 121/241/62
f 128/247/65 124/248/65 123/246/65 127/245/65
f 127/251/1 125/252/1 126/250/1 128/249/1
f 2/255/66 8/256/66 6/254/66 1/253/66
f 7/259/67 4/260/67 3/258/67 5/257/67
f 8/256/66 12/262/66 10/261/66 6/254/66
f 11/264/67 7/259/67 5/257/67 9/263/67
f 12/262/66 16/266/66 14/265/66 10/261/66
f 15/268/67 11/264/67 9/263/67 13/267/67
f 16/266/66 20/270/66 18/269/66 14/265/66
f 19/272/67 15/268/67 13/267/67 17/271/67
f 20/270/66 24/274/66 22/273/66 18/269/66
f 23/276/67 19/272/67 17/271/67 21/275/67
f 24/274/66 28/278/66 26/277/66 22/273/66
f 27/280/67 23/276/67 21/275/67 25/279/67
f 28/278/66 32/282/66 30/281/66 26/277/66
f 31/284/67 27/280/67 25/279/67 29/283/67
f 32/282/66 36/286/66 34/285/66 30/281/66
f 35/288/67 31/284/67 29/283/67 33/287/67
f 36/286/66 40/290/66 38/289/66 34/285/66
f 39/292/67 35/288/67 33/287/67 37/291/67
f 40/290/66 44/294/66 42/293/66 38/289/66
f 43/296/67 39/292/67 37/291/67 41/295/67
f 44/294/66 48/298/66 46/297/66 42/293/66
f 47/300/67 43/296/67 41/295/67 45/299/67
f 48/298/66 52/302/66 50/301/66 46/297/66
f 51/304/67 47/300/67 45/299/67 49/303/67
f 52/302/66 56/306/66 54/305/66 50/301/66
f 55/308/67 51/304/67 49/303/67 53/307/67
f 56/306/66 60/310/66 58/309/66 54/305/66
f 59/312/67 55/308/67 53/307/67 57/311/67
f 60/310/66 64/314/66 62/313/66 58/309/66
f 63/316/67 59/312/67 57/311/67 61/315/67
f 64/314/66 68/318/66 66/317/66 62/313/66
f 67/320/67 63/316/67 61/315/67 65/319/67
f 68/318/66 72/322/66 70/321/66 66/317/66
f 71/324/67 67/320/67 65/319/67 69/323/67
f 72/322/66 76/326/66 74/325/66 70/321/66
f 75/328/67 71/324/67 69/323/67 73/327/67
f 76/326/66 80/330/66 78/329/66 74/325/66
f 79/332/67 75/328/67 73/327/67 77/331/67
f 80/330/66 84/334/66 82/333/66 78/329/66
f 83/336/67 79/332/67 77/331/67 81/335/67
f 84/334/66 88/338/66 86/337/66 82/333/66
f 87/340/67 83/336/67 81/335/67 85/339/67
f 88/338/66 92/342/66 90/341/66 86/337/66
f 91/344/67 87/340/67 85/339/67 89/343/67
f 92/342/66 96/346/66 94/345/66 90/341/66
f 95/348/67 91/344/67 89/343/67 93/347/67
f 96/346/66 100/350/66 98/349/66 94/345/66
f 99/352/67 95/348/67 93/347/67 97/351/67
f 100/350/66 104/354/66 102/353/66 98/349/66
f 103/356/67 99/352/67 97/351/67 101/355/67
f 104/354/66 108/358/66 106/357/66 102/353/66
f 107/360/67 103/356/67 101/355/67 105/359/67
f 108/358/66 112/362/66 110/361/66 106/357/66
f 111/364/67 107/360/67 105/359/67 109/363/67
f 112/362/66 116/366/66 114/365/66 110/361/66
f 115/368/67 111/364/67 109/363/67 113/367/67
f 116/366/66 120/370/66 118/369/66 114/365/66
f 119/372/67 115/368/67 113/367/67 117/371/67
f 120/370/66 124/374/66 122/373/66 118/369/66
f 123/376/67 119/372/67 117/371/67 121/375/67
f 124/374/66 128/378/66 126/377/66 122/373/66
f 127/380/67 123/376/67 121/375/67 125/379/67

